<?xml version="1.0" encoding="utf-8"?>
<!-- Generator: Adobe Illustrator 20.1.0, SVG Export Plug-In . SVG Version: 6.00 Build 0)  -->
<!DOCTYPE svg PUBLIC "-//W3C//DTD SVG 1.1//EN" "http://www.w3.org/Graphics/SVG/1.1/DTD/svg11.dtd">
<svg version="1.1" id="Layer_1" xmlns="http://www.w3.org/2000/svg" xmlns:xlink="http://www.w3.org/1999/xlink" x="0px" y="0px"
	 viewBox="0 0 325 325" style="enable-background:new 0 0 325 325;" xml:space="preserve">
<style type="text/css">
	.st0{fill:none;stroke:#2EB790;stroke-width:4;stroke-miterlimit:10;}
	.st1{fill:#2EB790;}
</style>
<circle class="st0" cx="162.5" cy="162.5" r="160.5"/>
<path class="st1" d="M134.3,137.8c-3.1,0-4.7-2.5-4.7-4.7c0-3.1,2.5-4.7,4.7-4.7h59.8c3.1,0,4.7,2.5,4.7,4.7c0,3.1-2.5,4.7-4.7,4.7
	H134.3z M134.3,95.5h59.8c3.1,0,4.7,2.5,4.7,4.7c0,3.1-2.5,4.7-4.7,4.7h-59.8c-3.1,0-4.7-2.5-4.7-4.7
	C128.7,97.4,131.2,95.5,134.3,95.5z M120.3,69c-13.1,0-23.5,10.3-23.5,23.5v126.4c0,0,0.6-0.6,1.3-0.6c0.6-0.6,1.3-1.3,1.9-1.3
	c0.6-0.6,1.9-1.3,2.5-1.3c0.6,0,1.3-0.6,1.9-0.6c1.3-0.6,1.9-0.6,3.1-1.3c0.6,0,1.3-0.6,1.9-0.6c1.9-0.6,3.1-0.6,4.7-0.6h114.8V74.9
	c0-3.1-2.5-5.9-5.9-5.9L120.3,69L120.3,69z"/>
<path d="M189.7,223.2h-75.4c-7.8,0-15.6,5.3-16.9,13.1c-1.9,11,5.9,20,16.3,20h108.9c3.1,0,5.9-2.5,5.9-5.9v-27.2H189.7z"/>
<polygon class="st1" points="165.9,223.2 165.9,283.3 182.2,267 197.2,281.7 197.2,223.2 "/>
</svg>
