<?xml version="1.0" encoding="utf-8"?>
<!-- Generator: Adobe Illustrator 20.1.0, SVG Export Plug-In . SVG Version: 6.00 Build 0)  -->
<!DOCTYPE svg PUBLIC "-//W3C//DTD SVG 1.1//EN" "http://www.w3.org/Graphics/SVG/1.1/DTD/svg11.dtd">
<svg version="1.1" id="Layer_1" xmlns="http://www.w3.org/2000/svg" xmlns:xlink="http://www.w3.org/1999/xlink" x="0px" y="0px"
	 viewBox="0 0 325 325" style="enable-background:new 0 0 325 325;" xml:space="preserve">
<style type="text/css">
	.st0{fill:none;stroke:#2EB790;stroke-width:4;stroke-miterlimit:10;}
	.st1{fill:#333333;}
</style>
<circle class="st0" cx="162.5" cy="162.5" r="160.5"/>
<path class="st1" d="M154.7,146.5L154.7,146.5c-11,0-11-16.3,0-16.3h16.3c11,0,11,16.3,0,16.3H154.7z M255.7,122.1H69.6
	c-6.6-0.3-12.2,5-12.2,11.9v8.1c0,6.9,5.3,12.2,12.2,12.5h75.1l-30.3,75.4c-1.9,2.8,0.3,6.3,3.8,5.6h15.3c1.9,0,3.4-1.3,4.1-2.8
	l23.5-78.2h3.8L196,257c0.6,1.6,2.2,2.8,4.1,2.8h15.3c3.1,0.6,5.6-3.1,3.8-5.6l-38.8-99.5h75.4c6.9-0.3,12.2-5.6,12.2-12.5V134
	C267.9,127.1,262.3,121.8,255.7,122.1z"/>
</svg>
