<?xml version="1.0" encoding="utf-8"?>
<!-- Generator: Adobe Illustrator 20.1.0, SVG Export Plug-In . SVG Version: 6.00 Build 0)  -->
<!DOCTYPE svg PUBLIC "-//W3C//DTD SVG 1.1//EN" "http://www.w3.org/Graphics/SVG/1.1/DTD/svg11.dtd">
<svg version="1.1" id="Layer_1" xmlns="http://www.w3.org/2000/svg" xmlns:xlink="http://www.w3.org/1999/xlink" x="0px" y="0px"
	 viewBox="0 0 325 325" style="enable-background:new 0 0 325 325;" xml:space="preserve">
<style type="text/css">
	.st0{fill:#2EB790;}
	.st1{fill:#333333;}
	.st2{fill:none;stroke:#2EB790;stroke-width:4;stroke-miterlimit:10;}
</style>
<g>
	<g>
		<g>
			<g>
				<g>
					<path class="st0" d="M193.2,193.2c-0.9,2.5-2.8,3.8-5.3,3.8c-0.9,0-2.2-0.3-3.1-0.9l-22.2-14.4L140.3,196
						c-2.5,1.6-5.9,0.9-7.5-1.6c-1.6-2.5-0.9-5.9,1.6-7.5l22.5-14.7V145c0-3.8,3.4-6.3,7.5-5.3c2.2,0.9,3.8,3.1,3.8,5.3v26.9
						l22.5,14.7C193.2,188.2,194.1,191,193.2,193.2z"/>
				</g>
			</g>
		</g>
	</g>
	<path class="st1" d="M109.3,209.7c-0.3-0.3-0.3-0.3-0.3-0.6v-6.9c0.9-1.9,1.9-3.8,2.2-5.6c0.9,0,1.9-1.3,2.8-5
		c1.6-5.3,0-6.3-1.6-5.9c0.3-0.9,0.3-1.6,0.6-2.2c2.2-13.8-4.4-14.1-4.4-14.1s-0.9-2.2-4.1-3.8c-2.2-1.3-4.7-2.2-8.4-1.9
		c-1.3,0-2.2,0.3-3.4,0.6c-1.3,0.3-2.5,0.9-3.8,1.9c-1.6,0.9-2.8,1.9-3.8,3.1c-1.9,1.9-3.1,4.1-4.1,7.2c-0.6,2.2-0.3,4.4,0,6.9
		c0.3,0.9,0.3,1.6,0.6,2.2c-1.6-0.3-2.8,0.6-1.6,5.9c0.9,3.8,2.2,5,2.8,5c0.3,1.9,0.9,3.8,2.2,5.6v6.9c0,0.3-0.3,0.3-0.3,0.6
		c-2.2,0.9-11.6,5.9-20.6,13.5c-1.6,1.3-2.5,3.1-2.5,5.3v10h70.7v-10c0-2.2-0.9-4.1-2.5-5.3C120.9,215.7,111.2,210.7,109.3,209.7z"
		/>
	<path class="st1" d="M240.7,209.7c-0.3-0.3-0.3-0.3-0.3-0.6v-6.9c0.9-1.9,1.9-3.8,2.2-5.6c0.9,0,1.9-1.3,2.8-5
		c1.6-5.3,0-6.3-1.6-5.9c0.3-0.9,0.3-1.6,0.6-2.2c2.2-13.8-4.4-14.1-4.4-14.1s-0.9-2.2-4.1-3.8c-2.2-1.3-4.7-2.2-8.4-1.9
		c-1.3,0-2.2,0.3-3.4,0.6s-2.5,0.9-3.8,1.9c-1.6,0.9-2.8,1.9-3.8,3.1c-1.9,1.9-3.1,4.1-4.1,7.2c-0.6,2.2-0.3,4.4,0,6.9
		c0.3,0.9,0.3,1.6,0.6,2.2c-1.6-0.3-2.8,0.6-1.6,5.9c0.9,3.8,2.2,5,2.8,5c0.3,1.9,0.9,3.8,2.2,5.6v6.9c0,0.3-0.3,0.3-0.3,0.6
		c-2.2,0.9-11.6,5.9-20.6,13.5c-1.6,1.3-2.5,3.1-2.5,5.3v10h70.7v-10c0-2.2-0.9-4.1-2.5-5.3C252.3,215.7,242.6,210.7,240.7,209.7z"
		/>
	<path class="st1" d="M150.6,95.5c-2.2,0.9-11.6,5.9-20.6,13.5c-1.6,1.3-2.5,3.1-2.5,5.3v10h70.7v-10c0-2.2-0.9-4.1-2.5-5.3
		c-9.1-7.5-18.8-12.2-20.6-13.5c-0.3-0.3-0.3-0.3-0.3-0.6V88c0.9-1.9,1.9-3.8,2.2-5.6c0.9,0,1.9-1.3,2.8-5c1.6-5.3,0-6.3-1.6-5.9
		c0.3-0.9,0.3-1.6,0.6-2.2c2.2-13.8-4.4-14.1-4.4-14.1s-0.9-2.2-4.1-3.8c-2.2-1.3-4.7-2.2-8.4-1.9c-1.3,0-2.2,0.3-3.1,0.6
		c-1.3,0.3-2.5,0.9-3.8,1.9c-1.6,0.9-2.8,1.9-3.8,3.1c-1.9,1.9-3.1,4.1-4.1,7.2c-0.6,2.2-0.3,4.4,0,6.9c0.3,0.9,0.3,1.6,0.6,2.2
		c-1.6-0.3-2.8,0.6-1.6,5.9c0.9,3.8,2.2,5,2.8,5c0.3,1.9,0.9,3.8,2.2,5.6v6.9C151.2,95.2,150.9,95.2,150.6,95.5z"/>
</g>
<circle class="st2" cx="162.5" cy="162.5" r="160.5"/>
</svg>
