<?xml version="1.0" encoding="utf-8"?>
<!-- Generator: Adobe Illustrator 20.1.0, SVG Export Plug-In . SVG Version: 6.00 Build 0)  -->
<!DOCTYPE svg PUBLIC "-//W3C//DTD SVG 1.1//EN" "http://www.w3.org/Graphics/SVG/1.1/DTD/svg11.dtd">
<svg version="1.1" id="Layer_1" xmlns="http://www.w3.org/2000/svg" xmlns:xlink="http://www.w3.org/1999/xlink" x="0px" y="0px"
	 viewBox="0 0 325 325" style="enable-background:new 0 0 325 325;" xml:space="preserve">
<style type="text/css">
	.st0{fill:#2EB790;}
	.st1{fill:none;stroke:#2EB790;stroke-width:4;stroke-miterlimit:10;}
</style>
<path class="st0" d="M203.2,61.8l-7.8,5c-6.9-11-19.1-18.5-32.9-18.5s-26,7.2-32.9,18.5l-7.8-5c8.8-13.5,23.8-22.5,40.7-22.5
	C179.7,39.2,194.4,48,203.2,61.8z"/>
<path class="st0" d="M187.8,72.1l-7.8,5c-3.4-5.9-10-10-17.5-10c-7.5,0-13.8,4.1-17.5,9.7l-7.8-5c5-8.4,14.4-14.1,25-14.1
	C173.1,57.7,182.5,63.6,187.8,72.1z"/>
<circle class="st1" cx="162.5" cy="162.5" r="160.5"/>
<path class="st0" d="M138.4,155.9c-2.5,0-4.1-2.2-4.1-4.1c0-2.5,2.2-4.1,4.1-4.1h51.3c2.5,0,4.1,2.2,4.1,4.1c0,2.5-2.2,4.1-4.1,4.1
	H138.4z M138.4,119.6h51.3c2.5,0,4.1,2.2,4.1,4.1c0,2.5-2.2,4.1-4.1,4.1h-51.3c-2.5,0-4.1-2.2-4.1-4.1
	C133.7,121.2,135.6,119.6,138.4,119.6z M126.5,96.8c-11.3,0-20,8.8-20,20v108.3c0,0,0.6-0.6,0.9-0.6c0.6-0.6,0.9-0.9,1.6-0.9
	c0.6-0.6,1.6-0.9,2.2-0.9c0.6,0,0.9-0.6,1.6-0.6c0.9-0.6,1.6-0.6,2.5-0.9c0.6,0,0.9-0.6,1.6-0.6c1.6-0.6,2.5-0.6,4.1-0.6h98.2V102.1
	c0-2.5-2.2-5.3-5.3-5.3H126.5z"/>
<path d="M186,228.8h-64.8c-6.6,0-13.5,4.7-14.4,11.3c-1.6,9.4,5.3,17.2,14.1,17.2h93.2c2.5,0,5.3-2.2,5.3-5.3v-23.2H186z"/>
<polygon class="st0" points="165.3,228.8 165.3,280.5 179.4,266.4 192.2,279.2 192.2,228.8 "/>
</svg>
