<?xml version="1.0" encoding="utf-8"?>
<!-- Generator: Adobe Illustrator 20.1.0, SVG Export Plug-In . SVG Version: 6.00 Build 0)  -->
<!DOCTYPE svg PUBLIC "-//W3C//DTD SVG 1.1//EN" "http://www.w3.org/Graphics/SVG/1.1/DTD/svg11.dtd">
<svg version="1.1" id="Layer_1" xmlns="http://www.w3.org/2000/svg" xmlns:xlink="http://www.w3.org/1999/xlink" x="0px" y="0px"
	 viewBox="0 0 106.7 106.7" enable-background="new 0 0 106.7 106.7" xml:space="preserve">
<path fill="#333333" d="M77.8,46.3c0,4.3-3.5,7.7-7.7,7.7s-7.7-3.5-7.7-7.7c0-4.3,3.5-7.7,7.7-7.7S77.8,42,77.8,46.3"/>
<path fill="#333333" d="M70.1,57.6c-10.2,0-18.5,8.3-18.5,18.5h36.9C88.6,65.9,80.3,57.6,70.1,57.6z"/>
<path fill="#2EB790" d="M35.5,44.8h-0.8c-0.8,0-1.5-0.6-1.5-1.5s0.6-1.5,1.5-1.5h0.8c0.8,0,1.5,0.6,1.5,1.5S36.3,44.8,35.5,44.8z
	 M26,44.8h-0.8c-0.8,0-1.5-0.6-1.5-1.5s0.6-1.5,1.5-1.5H26c0.8,0,1.5,0.6,1.5,1.5S26.8,44.8,26,44.8z M44.3,41.8H45
	c0.8,0,1.5,0.6,1.5,1.5c0,0.9-0.6,1.5-1.5,1.5h-0.8c-0.8,0-1.5-0.6-1.5-1.5C42.7,42.4,43.4,41.8,44.3,41.8z M47.4,60.6v-7.4h4.7
	V33.4h-34v19.7h21.5L47.4,60.6z"/>
<circle fill="none" stroke="#2EB790" stroke-width="4" stroke-miterlimit="10" cx="53.3" cy="53.3" r="51.3"/>
</svg>
