<?xml version="1.0" encoding="utf-8"?>
<!-- Generator: Adobe Illustrator 20.1.0, SVG Export Plug-In . SVG Version: 6.00 Build 0)  -->
<!DOCTYPE svg PUBLIC "-//W3C//DTD SVG 1.1//EN" "http://www.w3.org/Graphics/SVG/1.1/DTD/svg11.dtd">
<svg version="1.1" id="Layer_1" xmlns="http://www.w3.org/2000/svg" xmlns:xlink="http://www.w3.org/1999/xlink" x="0px" y="0px"
	 viewBox="0 0 106.7 106.7" enable-background="new 0 0 106.7 106.7" xml:space="preserve">
<circle fill="none" stroke="#FFFFFF" stroke-width="4" stroke-miterlimit="10" cx="53.3" cy="53.3" r="51.3"/>
<g>
	<path fill="#F6F6F6" d="M45.5,61.3l3.2-3.2c-1.2-1.2-2-2.9-2-4.8c0-3.7,3-6.8,6.8-6.8s6.8,3,6.8,6.8c0,1.9-0.8,3.5-2,4.8l3.2,3.2
		c2-2,3.3-4.8,3.3-7.9c0-6.2-5-11.2-11.2-11.2s-11.2,5-11.2,11.2C42.2,56.4,43.5,59.3,45.5,61.3z"/>
	<polygon fill="#333333" points="75.9,82.6 53.4,60.1 30.9,82.6 	"/>
	<path fill="#F6F6F6" d="M36,70.8c-4.5-4.5-7.3-10.7-7.3-17.5c0-13.6,11.1-24.8,24.7-24.8s24.8,11.1,24.8,24.8
		c0,6.8-2.8,13-7.3,17.5l3.2,3.2c5.3-5.3,8.6-12.6,8.6-20.7c0-16.1-13.1-29.3-29.2-29.3S24.2,37.2,24.2,53.3
		c0,8.1,3.3,15.4,8.6,20.7L36,70.8z"/>
	<path fill="#F6F6F6" d="M42.3,64.5c-2.9-2.9-4.6-6.8-4.6-11.1c0-8.7,7.1-15.8,15.8-15.8s15.8,7.1,15.8,15.8c0,4.3-1.8,8.3-4.6,11.1
		l3.2,3.2c3.7-3.7,5.9-8.7,5.9-14.3c0-11.2-9.1-20.2-20.2-20.2s-20.2,9.1-20.2,20.2c0,5.6,2.3,10.6,5.9,14.3L42.3,64.5z"/>
</g>
</svg>
