<?xml version="1.0" encoding="utf-8"?>
<!-- Generator: Adobe Illustrator 20.1.0, SVG Export Plug-In . SVG Version: 6.00 Build 0)  -->
<!DOCTYPE svg PUBLIC "-//W3C//DTD SVG 1.1//EN" "http://www.w3.org/Graphics/SVG/1.1/DTD/svg11.dtd">
<svg version="1.1" id="Layer_1" xmlns="http://www.w3.org/2000/svg" xmlns:xlink="http://www.w3.org/1999/xlink" x="0px" y="0px"
	 viewBox="0 0 325 325" style="enable-background:new 0 0 325 325;" xml:space="preserve">
<style type="text/css">
	.st0{fill:#333333;}
	.st1{fill:none;stroke:#2EB790;stroke-width:4;stroke-miterlimit:10;}
</style>
<path class="st0" d="M162.5,219.1c-31.6,0-56.9-25.7-56.9-56.9c0-31.6,25.7-56.9,56.9-56.9s56.9,25.7,56.9,56.9
	C219.8,193.5,194.1,219.1,162.5,219.1z M245.4,148.7c-2.2-12.8-6.9-24.4-14.1-34.4l17.2-17.5l-19.1-19.1l-16.9,16.9
	c-10.6-8.1-23.2-13.5-36.9-15.6V56.8h-26.9V79c-13.8,2.2-26.3,7.8-36.9,15.6L94.9,77.7L75.8,96.5L93,113.7
	c-6.9,10-11.9,21.9-14.1,34.4H56.4V175h22.8c2.2,13.8,7.8,26.3,15.6,36.9l-14.4,15.3l19.1,19.1l15.3-15.3
	c10,6.9,21.9,11.9,34.4,14.1v23.2H176v-23.2c12.8-2.2,24.4-6.9,34.4-14.1l15.3,15.3l19.1-19.1l-15-15c8.1-10.6,13.5-23.2,15.6-36.9
	h22.8v-26.6C268.2,148.7,245.4,148.7,245.4,148.7z"/>
<circle class="st1" cx="162.5" cy="162.5" r="160.5"/>
</svg>
