<?xml version="1.0" encoding="utf-8"?>
<!-- Generator: Adobe Illustrator 20.1.0, SVG Export Plug-In . SVG Version: 6.00 Build 0)  -->
<!DOCTYPE svg PUBLIC "-//W3C//DTD SVG 1.1//EN" "http://www.w3.org/Graphics/SVG/1.1/DTD/svg11.dtd">
<svg version="1.1" id="Layer_1" xmlns="http://www.w3.org/2000/svg" xmlns:xlink="http://www.w3.org/1999/xlink" x="0px" y="0px"
	 viewBox="0 0 325 325" style="enable-background:new 0 0 325 325;" xml:space="preserve">
<style type="text/css">
	.st0{fill:none;stroke:#FFFFFF;stroke-width:4;stroke-miterlimit:10;}
	.st1{fill:#F6F6F6;}
	.st2{fill:#333333;}
</style>
<circle class="st0" cx="162.5" cy="162.5" r="160.5"/>
<g>
	<path class="st1" d="M138.1,187.5l10-10c-3.8-3.8-6.3-9.1-6.3-15c0-11.6,9.4-21.3,21.3-21.3s21.3,9.4,21.3,21.3
		c0,5.9-2.5,11-6.3,15l10,10c6.3-6.3,10.3-15,10.3-24.7c0-19.4-15.6-35-35-35s-35,15.6-35,35C127.8,172.2,131.8,181.3,138.1,187.5z"
		/>
	<polygon class="st2" points="233.2,254.2 162.8,183.8 92.4,254.2 	"/>
	<path class="st1" d="M108.4,217.3c-14.1-14.1-22.8-33.5-22.8-54.8c0-42.5,34.7-77.6,77.3-77.6s77.6,34.7,77.6,77.6
		c0,21.3-8.8,40.7-22.8,54.8l10,10c16.6-16.6,26.9-39.4,26.9-64.8c0-50.4-41-91.7-91.4-91.7s-91.7,41.3-91.7,91.7
		c0,25.3,10.3,48.2,26.9,64.8L108.4,217.3z"/>
	<path class="st1" d="M128.1,197.5c-9.1-9.1-14.4-21.3-14.4-34.7c0-27.2,22.2-49.4,49.4-49.4s49.4,22.2,49.4,49.4
		c0,13.5-5.6,26-14.4,34.7l10,10c11.6-11.6,18.5-27.2,18.5-44.7c0-35-28.5-63.2-63.2-63.2s-63.2,28.5-63.2,63.2
		c0,17.5,7.2,33.2,18.5,44.7L128.1,197.5z"/>
</g>
</svg>
