<?xml version="1.0" encoding="utf-8"?>
<!-- Generator: Adobe Illustrator 20.1.0, SVG Export Plug-In . SVG Version: 6.00 Build 0)  -->
<!DOCTYPE svg PUBLIC "-//W3C//DTD SVG 1.1//EN" "http://www.w3.org/Graphics/SVG/1.1/DTD/svg11.dtd">
<svg version="1.1" id="Layer_1" xmlns="http://www.w3.org/2000/svg" xmlns:xlink="http://www.w3.org/1999/xlink" x="0px" y="0px"
	 viewBox="0 0 106.7 106.7" enable-background="new 0 0 106.7 106.7" xml:space="preserve">
<g>
	<g>
		<g>
			<g>
				<g>
					<path fill="#2EB790" d="M63.1,63.1c-0.3,0.8-0.9,1.2-1.7,1.2c-0.3,0-0.7-0.1-1-0.3l-7.1-4.6l-7.1,4.6c-0.8,0.5-1.9,0.3-2.4-0.5
						c-0.5-0.8-0.3-1.9,0.5-2.4l7.2-4.7v-8.7c0-1.2,1.1-2,2.4-1.7c0.7,0.3,1.2,1,1.2,1.7v8.6l7.2,4.7C63.1,61.5,63.4,62.4,63.1,63.1
						z"/>
				</g>
			</g>
		</g>
	</g>
	<path fill="#333333" d="M36.3,68.4c-0.1-0.1-0.1-0.1-0.1-0.2V66c0.3-0.6,0.6-1.2,0.7-1.8c0.3,0,0.6-0.4,0.9-1.6
		c0.5-1.7,0-2-0.5-1.9c0.1-0.3,0.1-0.5,0.2-0.7c0.7-4.4-1.4-4.5-1.4-4.5s-0.3-0.7-1.3-1.2c-0.7-0.4-1.5-0.7-2.7-0.6
		c-0.4,0-0.7,0.1-1.1,0.2c-0.4,0.1-0.8,0.3-1.2,0.6c-0.5,0.3-0.9,0.6-1.2,1c-0.6,0.6-1,1.3-1.3,2.3c-0.2,0.7-0.1,1.4,0,2.2
		c0.1,0.3,0.1,0.5,0.2,0.7c-0.5-0.1-0.9,0.2-0.5,1.9c0.3,1.2,0.7,1.6,0.9,1.6c0.1,0.6,0.3,1.2,0.7,1.8v2.2c0,0.1-0.1,0.1-0.1,0.2
		c-0.7,0.3-3.7,1.9-6.6,4.3c-0.5,0.4-0.8,1-0.8,1.7v3.2h22.6v-3.2c0-0.7-0.3-1.3-0.8-1.7C40,70.3,36.9,68.7,36.3,68.4z"/>
	<path fill="#333333" d="M78.3,68.4c-0.1-0.1-0.1-0.1-0.1-0.2V66c0.3-0.6,0.6-1.2,0.7-1.8c0.3,0,0.6-0.4,0.9-1.6
		c0.5-1.7,0-2-0.5-1.9c0.1-0.3,0.1-0.5,0.2-0.7c0.7-4.4-1.4-4.5-1.4-4.5s-0.3-0.7-1.3-1.2c-0.7-0.4-1.5-0.7-2.7-0.6
		c-0.4,0-0.7,0.1-1.1,0.2c-0.4,0.1-0.8,0.3-1.2,0.6c-0.5,0.3-0.9,0.6-1.2,1c-0.6,0.6-1,1.3-1.3,2.3c-0.2,0.7-0.1,1.4,0,2.2
		c0.1,0.3,0.1,0.5,0.2,0.7c-0.5-0.1-0.9,0.2-0.5,1.9c0.3,1.2,0.7,1.6,0.9,1.6c0.1,0.6,0.3,1.2,0.7,1.8v2.2c0,0.1-0.1,0.1-0.1,0.2
		c-0.7,0.3-3.7,1.9-6.6,4.3c-0.5,0.4-0.8,1-0.8,1.7v3.2h22.6v-3.2c0-0.7-0.3-1.3-0.8-1.7C82,70.3,78.9,68.7,78.3,68.4z"/>
	<path fill="#333333" d="M49.5,31.9c-0.7,0.3-3.7,1.9-6.6,4.3c-0.5,0.4-0.8,1-0.8,1.7v3.2h22.6v-3.2c0-0.7-0.3-1.3-0.8-1.7
		c-2.9-2.4-6-3.9-6.6-4.3c-0.1-0.1-0.1-0.1-0.1-0.2v-2.2c0.3-0.6,0.6-1.2,0.7-1.8c0.3,0,0.6-0.4,0.9-1.6c0.5-1.7,0-2-0.5-1.9
		c0.1-0.3,0.1-0.5,0.2-0.7c0.7-4.4-1.4-4.5-1.4-4.5s-0.3-0.7-1.3-1.2c-0.7-0.4-1.5-0.7-2.7-0.6c-0.4,0-0.7,0.1-1,0.2
		c-0.4,0.1-0.8,0.3-1.2,0.6c-0.5,0.3-0.9,0.6-1.2,1c-0.6,0.6-1,1.3-1.3,2.3c-0.2,0.7-0.1,1.4,0,2.2c0.1,0.3,0.1,0.5,0.2,0.7
		c-0.5-0.1-0.9,0.2-0.5,1.9c0.3,1.2,0.7,1.6,0.9,1.6c0.1,0.6,0.3,1.2,0.7,1.8v2.2C49.7,31.8,49.6,31.8,49.5,31.9z"/>
</g>
<circle fill="none" stroke="#2EB790" stroke-width="4" stroke-miterlimit="10" cx="53.3" cy="53.3" r="51.3"/>
</svg>
