<?xml version="1.0" encoding="utf-8"?>
<!-- Generator: Adobe Illustrator 20.1.0, SVG Export Plug-In . SVG Version: 6.00 Build 0)  -->
<!DOCTYPE svg PUBLIC "-//W3C//DTD SVG 1.1//EN" "http://www.w3.org/Graphics/SVG/1.1/DTD/svg11.dtd">
<svg version="1.1" id="Layer_1" xmlns="http://www.w3.org/2000/svg" xmlns:xlink="http://www.w3.org/1999/xlink" x="0px" y="0px"
	 viewBox="0 0 325 325" style="enable-background:new 0 0 325 325;" xml:space="preserve">
<style type="text/css">
	.st0{fill:#333333;}
	.st1{fill:#2EB790;}
	.st2{fill:none;stroke:#2EB790;stroke-width:4;stroke-miterlimit:10;}
</style>
<path class="st0" d="M239.2,140.6c0,13.5-11,24.1-24.1,24.1c-13.1,0-24.1-11-24.1-24.1c0-13.5,11-24.1,24.1-24.1
	C228.2,116.5,239.2,127.1,239.2,140.6"/>
<path class="st0" d="M215.1,176c-31.9,0-57.9,26-57.9,57.9h115.4C272.9,201.9,247,176,215.1,176z"/>
<path class="st1" d="M106.8,135.9h-2.5c-2.5,0-4.7-1.9-4.7-4.7s1.9-4.7,4.7-4.7h2.5c2.5,0,4.7,1.9,4.7,4.7S109.3,135.9,106.8,135.9z
	 M77.1,135.9h-2.5c-2.5,0-4.7-1.9-4.7-4.7s1.9-4.7,4.7-4.7h2.5c2.5,0,4.7,1.9,4.7,4.7S79.6,135.9,77.1,135.9z M134.3,126.5h2.2
	c2.5,0,4.7,1.9,4.7,4.7s-1.9,4.7-4.7,4.7H134c-2.5,0-4.7-1.9-4.7-4.7C129.3,128.4,131.5,126.5,134.3,126.5z M144,185.3v-23.2h14.7
	v-61.9H52.4v61.6h67.3L144,185.3z"/>
<circle class="st2" cx="162.5" cy="162.5" r="160.5"/>
</svg>
