<?xml version="1.0" encoding="utf-8"?>
<!-- Generator: Adobe Illustrator 20.1.0, SVG Export Plug-In . SVG Version: 6.00 Build 0)  -->
<!DOCTYPE svg PUBLIC "-//W3C//DTD SVG 1.1//EN" "http://www.w3.org/Graphics/SVG/1.1/DTD/svg11.dtd">
<svg version="1.1" id="Layer_1" xmlns="http://www.w3.org/2000/svg" xmlns:xlink="http://www.w3.org/1999/xlink" x="0px" y="0px"
	 viewBox="0 0 325 325" style="enable-background:new 0 0 325 325;" xml:space="preserve">
<style type="text/css">
	.st0{fill:none;stroke:#F6F6F6;stroke-width:4;stroke-miterlimit:10;}
	.st1{fill:#333333;}
	.st2{fill:#F6F6F6;}
</style>
<circle class="st0" cx="162.5" cy="162.5" r="160.5"/>
<path class="st1" d="M211.9,165.6v32.9l32.9-18.8l-14.1-21.3v6.9c0,4.7-2.5,9.4-6.9,9.4s-6.9-4.7-6.9-9.4v-2.5L211.9,165.6z
	 M211.9,160.9l4.7-4.7v-39.7h-4.7V160.9z M232.9,151.5l16.3,28.2v4.7l-37.5,18.8v49.4c0,4.7-4.7,9.4-9.4,9.4c-4.7,0-9.4-4.7-9.4-9.4
	V175H186v77.6c0,4.7-4.7,9.4-9.4,9.4s-9.4-4.7-9.4-9.4V116.5h-2.5L139,132.8c-2.5,0-4.7-2.5-6.9-4.7l-21.3-18.8
	c-2.5-2.5-2.5-6.9,0-11.9c2.5-2.2,9.4-2.2,11.9,0l16.3,16.3l21.3-14.1c4.7-4.7,9.4-6.9,16.3-6.9h28.2c0,0,4.7,0,6.9,0
	c11.9,0,18.8,6.9,18.8,18.8V149L232.9,151.5z M190.7,50.8c9.4,0,16.3,6.9,16.3,18.8c0,9.4-6.9,16.3-16.3,16.3
	c-9.4,0-18.8-6.9-18.8-16.3C171.9,57.7,181.3,50.8,190.7,50.8z"/>
<polygon class="st2" points="150.9,158.7 75.8,158.7 75.8,252.6 87.4,252.6 87.4,184.4 139,184.4 139,252.6 150.9,252.6 "/>
<rect x="78" y="146.9" class="st2" width="44.4" height="9.4"/>
<rect x="75.8" y="135.3" class="st2" width="42.2" height="9.4"/>
<rect x="85.2" y="123.4" class="st2" width="35" height="9.4"/>
</svg>
