<?xml version="1.0" encoding="utf-8"?>
<!-- Generator: Adobe Illustrator 20.1.0, SVG Export Plug-In . SVG Version: 6.00 Build 0)  -->
<!DOCTYPE svg PUBLIC "-//W3C//DTD SVG 1.1//EN" "http://www.w3.org/Graphics/SVG/1.1/DTD/svg11.dtd">
<svg version="1.1" id="Layer_1" xmlns="http://www.w3.org/2000/svg" xmlns:xlink="http://www.w3.org/1999/xlink" x="0px" y="0px"
	 viewBox="0 0 106.7 106.7" enable-background="new 0 0 106.7 106.7" xml:space="preserve">
<circle fill="none" stroke="#2EB790" stroke-width="4" stroke-miterlimit="10" cx="53.3" cy="53.3" r="51.3"/>
<path fill="#333333" d="M50.8,48.2L50.8,48.2c-3.5,0-3.5-5.2,0-5.2h5.2c3.5,0,3.5,5.2,0,5.2H50.8z M83.1,40.4H23.6
	c-2.1-0.1-3.9,1.6-3.9,3.8v2.6c0,2.2,1.7,3.9,3.9,4h24l-9.7,24.1c-0.6,0.9,0.1,2,1.2,1.8h4.9c0.6,0,1.1-0.4,1.3-0.9l7.5-25h1.2
	L64,83.5c0.2,0.5,0.7,0.9,1.3,0.9h4.9c1,0.2,1.8-1,1.2-1.8L59,50.8h24.1c2.2-0.1,3.9-1.8,3.9-4v-2.6C87,42,85.2,40.3,83.1,40.4z"/>
</svg>
