<?xml version="1.0" encoding="utf-8"?>
<!-- Generator: Adobe Illustrator 20.1.0, SVG Export Plug-In . SVG Version: 6.00 Build 0)  -->
<!DOCTYPE svg PUBLIC "-//W3C//DTD SVG 1.1//EN" "http://www.w3.org/Graphics/SVG/1.1/DTD/svg11.dtd">
<svg version="1.1" id="Layer_1" xmlns="http://www.w3.org/2000/svg" xmlns:xlink="http://www.w3.org/1999/xlink" x="0px" y="0px"
	 viewBox="0 0 106.7 106.7" enable-background="new 0 0 106.7 106.7" xml:space="preserve">
<path fill="#2EB790" d="M66.3,21.1l-2.5,1.6c-2.2-3.5-6.1-5.9-10.5-5.9s-8.3,2.3-10.5,5.9l-2.5-1.6c2.8-4.3,7.6-7.2,13-7.2
	C58.8,13.9,63.5,16.7,66.3,21.1z"/>
<path fill="#2EB790" d="M61.4,24.4L58.9,26c-1.1-1.9-3.2-3.2-5.6-3.2c-2.4,0-4.4,1.3-5.6,3.1l-2.5-1.6c1.6-2.7,4.6-4.5,8-4.5
	C56.7,19.8,59.7,21.7,61.4,24.4z"/>
<circle fill="none" stroke="#2EB790" stroke-width="4" stroke-miterlimit="10" cx="53.3" cy="53.3" r="51.3"/>
<path fill="#2EB790" d="M45.6,51.2c-0.8,0-1.3-0.7-1.3-1.3c0-0.8,0.7-1.3,1.3-1.3h16.4c0.8,0,1.3,0.7,1.3,1.3c0,0.8-0.7,1.3-1.3,1.3
	H45.6z M45.6,39.6h16.4c0.8,0,1.3,0.7,1.3,1.3c0,0.8-0.7,1.3-1.3,1.3H45.6c-0.8,0-1.3-0.7-1.3-1.3C44.1,40.1,44.7,39.6,45.6,39.6z
	 M41.8,32.3c-3.6,0-6.4,2.8-6.4,6.4v34.6c0,0,0.2-0.2,0.3-0.2c0.2-0.2,0.3-0.3,0.5-0.3c0.2-0.2,0.5-0.3,0.7-0.3
	c0.2,0,0.3-0.2,0.5-0.2c0.3-0.2,0.5-0.2,0.8-0.3c0.2,0,0.3-0.2,0.5-0.2c0.5-0.2,0.8-0.2,1.3-0.2h31.4V34c0-0.8-0.7-1.7-1.7-1.7H41.8
	z"/>
<path d="M60.8,74.5H40.1c-2.1,0-4.3,1.5-4.6,3.6c-0.5,3,1.7,5.5,4.5,5.5h29.8c0.8,0,1.7-0.7,1.7-1.7v-7.4H60.8z"/>
<polygon fill="#2EB790" points="54.2,74.5 54.2,91 58.7,86.5 62.8,90.6 62.8,74.5 "/>
</svg>
