<?xml version="1.0" encoding="utf-8"?>
<!-- Generator: Adobe Illustrator 20.1.0, SVG Export Plug-In . SVG Version: 6.00 Build 0)  -->
<!DOCTYPE svg PUBLIC "-//W3C//DTD SVG 1.1//EN" "http://www.w3.org/Graphics/SVG/1.1/DTD/svg11.dtd">
<svg version="1.1" id="Layer_1" xmlns="http://www.w3.org/2000/svg" xmlns:xlink="http://www.w3.org/1999/xlink" x="0px" y="0px"
	 viewBox="0 0 106.7 106.7" enable-background="new 0 0 106.7 106.7" xml:space="preserve">
<circle fill="none" stroke="#2EB790" stroke-width="4" stroke-miterlimit="10" cx="53.3" cy="53.3" r="51.3"/>
<path fill="#2EB790" d="M49.2,57.7c-0.1-0.1-0.2-0.2-0.3-0.3c-3.1-2.5-5.5-7.4-5.5-11.4c0-5.6,5.1-10.1,10-10.1
	c4.9,0,9.7,4.8,9.7,10.4c0,4-2.6,8.7-5.9,11.1c0.7,2.3,4.3,1.5,11.9,3.3c6,1.5,8.8,3.8,9.8,6.2H27.1c1.1-2.5,3.8-4.8,9.8-6.2
	c7.4-1.8,11-1,11.9-3.1L49.2,57.7L49.2,57.7z"/>
<path fill="#333333" d="M22.1,31.7c0-1.6,1.3-2.9,2.9-2.9h56.9c1.6,0,2.9,1.3,2.9,2.9v38.4c0,1.6-1.3,2.9-2.9,2.9h-19V78
	c0,0.3-0.1,0.6-0.1,0.9h8.7c1.1,0,2,0.9,2,2c0,1.1-0.9,2-2,2H35.4c-1.1,0-2-0.9-2-2c0-0.6,0.2-1.1,0.6-1.4c0.4-0.4,0.9-0.6,1.4-0.6
	h8.7C44,78.6,44,78.3,44,78v-4.9H25c-1.6,0-2.9-1.3-2.9-2.9V31.7z M25.6,68.7h55.6V32.5H25.6V68.7z"/>
</svg>
