<?xml version="1.0" encoding="utf-8"?>
<!-- Generator: Adobe Illustrator 20.1.0, SVG Export Plug-In . SVG Version: 6.00 Build 0)  -->
<!DOCTYPE svg PUBLIC "-//W3C//DTD SVG 1.1//EN" "http://www.w3.org/Graphics/SVG/1.1/DTD/svg11.dtd">
<svg version="1.1" id="Layer_1" xmlns="http://www.w3.org/2000/svg" xmlns:xlink="http://www.w3.org/1999/xlink" x="0px" y="0px"
	 viewBox="0 0 106.7 106.7" enable-background="new 0 0 106.7 106.7" xml:space="preserve">
<circle fill="none" stroke="#F6F6F6" stroke-width="4" stroke-miterlimit="10" cx="53.3" cy="53.3" r="51.3"/>
<path fill-rule="evenodd" clip-rule="evenodd" fill="#333333" d="M69.1,54.3v10.5l10.5-6l-4.5-6.8v2.2c0,1.5-0.8,3-2.2,3
	s-2.2-1.5-2.2-3v-0.8L69.1,54.3z M69.1,52.8l1.5-1.5V38.6h-1.5V52.8z M75.8,49.8l5.2,9v1.5l-12,6v15.8c0,1.5-1.5,3-3,3s-3-1.5-3-3
	V57.3h-2.2v24.8c0,1.5-1.5,3-3,3s-3-1.5-3-3V38.6h-0.8l-8.2,5.2c-0.8,0-1.5-0.8-2.2-1.5l-6.8-6c-0.8-0.8-0.8-2.2,0-3.8
	c0.8-0.7,3-0.7,3.8,0l5.2,5.2l6.8-4.5c1.5-1.5,3-2.2,5.2-2.2h9c0,0,1.5,0,2.2,0c3.8,0,6,2.2,6,6v12L75.8,49.8z M62.3,17.6
	c3,0,5.2,2.2,5.2,6c0,3-2.2,5.2-5.2,5.2s-6-2.2-6-5.2C56.3,19.8,59.3,17.6,62.3,17.6z"/>
<polygon fill-rule="evenodd" clip-rule="evenodd" fill="#F6F6F6" points="49.6,52.1 25.6,52.1 25.6,82.1 29.3,82.1 29.3,60.3 
	45.8,60.3 45.8,82.1 49.6,82.1 "/>
<rect x="26.3" y="48.3" fill-rule="evenodd" clip-rule="evenodd" fill="#F6F6F6" width="14.2" height="3"/>
<rect x="25.6" y="44.6" fill-rule="evenodd" clip-rule="evenodd" fill="#F6F6F6" width="13.5" height="3"/>
<rect x="28.6" y="40.8" fill-rule="evenodd" clip-rule="evenodd" fill="#F6F6F6" width="11.2" height="3"/>
</svg>
