<?xml version="1.0" encoding="utf-8"?>
<!-- Generator: Adobe Illustrator 20.1.0, SVG Export Plug-In . SVG Version: 6.00 Build 0)  -->
<!DOCTYPE svg PUBLIC "-//W3C//DTD SVG 1.1//EN" "http://www.w3.org/Graphics/SVG/1.1/DTD/svg11.dtd">
<svg version="1.1" id="Layer_1" xmlns="http://www.w3.org/2000/svg" xmlns:xlink="http://www.w3.org/1999/xlink" x="0px" y="0px"
	 viewBox="0 0 106.7 106.7" enable-background="new 0 0 106.7 106.7" xml:space="preserve">
<circle fill="none" stroke="#2EB790" stroke-width="4" stroke-miterlimit="10" cx="53.3" cy="53.3" r="51.3"/>
<path fill="#2EB790" d="M44.3,45.4c-1,0-1.5-0.8-1.5-1.5c0-1,0.8-1.5,1.5-1.5h19.1c1,0,1.5,0.8,1.5,1.5c0,1-0.8,1.5-1.5,1.5H44.3z
	 M44.3,31.9h19.1c1,0,1.5,0.8,1.5,1.5c0,1-0.8,1.5-1.5,1.5H44.3c-1,0-1.5-0.8-1.5-1.5C42.5,32.5,43.3,31.9,44.3,31.9z M39.8,23.4
	c-4.2,0-7.5,3.3-7.5,7.5v40.4c0,0,0.2-0.2,0.4-0.2c0.2-0.2,0.4-0.4,0.6-0.4c0.2-0.2,0.6-0.4,0.8-0.4c0.2,0,0.4-0.2,0.6-0.2
	c0.4-0.2,0.6-0.2,1-0.4c0.2,0,0.4-0.2,0.6-0.2c0.6-0.2,1-0.2,1.5-0.2h36.7v-44c0-1-0.8-1.9-1.9-1.9H39.8z"/>
<path d="M62,72.7H37.9c-2.5,0-5,1.7-5.4,4.2c-0.6,3.5,1.9,6.4,5.2,6.4h34.8c1,0,1.9-0.8,1.9-1.9v-8.7H62z"/>
<polygon fill="#2EB790" points="54.4,72.7 54.4,91.9 59.6,86.7 64.4,91.4 64.4,72.7 "/>
</svg>
