<?xml version="1.0" encoding="utf-8"?>
<!-- Generator: Adobe Illustrator 20.1.0, SVG Export Plug-In . SVG Version: 6.00 Build 0)  -->
<!DOCTYPE svg PUBLIC "-//W3C//DTD SVG 1.1//EN" "http://www.w3.org/Graphics/SVG/1.1/DTD/svg11.dtd">
<svg version="1.1" id="Layer_1" xmlns="http://www.w3.org/2000/svg" xmlns:xlink="http://www.w3.org/1999/xlink" x="0px" y="0px"
	 viewBox="0 0 544.5 111.4" enable-background="new 0 0 544.5 111.4" xml:space="preserve">
<g>
	<path fill="#2EB790" d="M135.6,72.4h10.3c0.7,5.8,3,10.6,12.8,10.6c6.3,0,10.8-3.5,10.8-8.8c0-5.3-2.6-7.3-12-8.8
		c-13.7-1.8-20.2-6-20.2-16.8c0-9.4,8-16.4,20-16.4c12.4,0,19.7,5.6,20.9,16.6h-9.8c-1-6-4.5-8.6-11.1-8.6c-6.5,0-9.9,3.1-9.9,7.5
		c0,4.7,1.9,7,11.9,8.4c13.5,1.8,20.5,5.7,20.5,17.2c0,9.9-8.4,17.7-21.1,17.7C143,91,136.4,83.3,135.6,72.4z"/>
	<path fill="#2EB790" d="M186.1,69.7v-0.6c0-13,8.9-21.7,20.9-21.7c10.4,0,19.8,6.2,19.8,21.2v2.8H196c0.3,7.9,4.3,12.4,11.6,12.4
		c5.9,0,8.9-2.3,9.6-6.4h9.4c-1.4,8.8-8.5,13.6-19.3,13.6C195,91,186.1,82.9,186.1,69.7z M217.1,64.9c-0.5-7.2-4.2-10.4-10.2-10.4
		c-5.9,0-9.8,3.9-10.7,10.4H217.1z"/>
	<path fill="#333333" d="M236,48.3h6.7v7.5c2.6-4.7,6.3-8,13.8-8.3v6.3c-8.4,0.4-13.8,3-13.8,13.4v23H236V48.3z"/>
	<path fill="#333333" d="M261.4,69.7v-0.6c0-12.7,8.1-21.5,19.7-21.5c9.7,0,18.9,5.9,18.9,20.9v2.2h-31.6
		c0.3,9.5,4.9,14.8,13.5,14.8c6.5,0,10.3-2.4,11.1-7.3h6.7c-1.4,8.4-8.4,12.8-17.9,12.8C269.8,91,261.4,82.6,261.4,69.7z
		 M293.1,65.2c-0.6-8.7-5.1-12.1-12-12.1c-6.8,0-11.4,4.7-12.5,12.1H293.1z"/>
	<path fill="#333333" d="M309.7,48.3h6.7V55c1.9-3.9,6.6-7.4,13.5-7.4c8.7,0,14.8,4.7,14.8,16.9v25.7h-6.7V64
		c0-7.4-3.1-10.7-9.9-10.7c-6.2,0-11.7,3.9-11.7,11.5v25.4h-6.7V48.3z"/>
	<path fill="#333333" d="M353.9,35.1c0-2.4,2-4.4,4.4-4.4c2.4,0,4.4,2,4.4,4.4c0,2.4-2,4.4-4.4,4.4
		C355.9,39.6,353.9,37.5,353.9,35.1z M355.1,48.3h6.7v42h-6.7V48.3z"/>
	<path fill="#333333" d="M376.5,79.7V53.9h-6v-5.6h6v-9.5h6.7v9.5h9.8v5.6h-9.8v25.2c0,4.1,1.8,6.1,5.2,6.1c2.1,0,3.7-0.3,5.1-0.9
		v5.6c-1.4,0.5-3,0.9-5.7,0.9C380.1,90.8,376.5,86.3,376.5,79.7z"/>
	<path fill="#333333" d="M414.8,85.9l-16.4-37.6h7.1l12.8,30.1L430,48.3h6.8l-23.2,56.6h-6.7L414.8,85.9z"/>
</g>
<g>
	<path fill="#2EB790" d="M450.3,47.9h8.2c8.8,0,13.1,4.7,13.1,12.2v0.3c0,7.5-4.4,12.5-13.1,12.5h-8.1V47.9z M458.3,68.5
		c5,0,7.4-2.8,7.4-8v-0.3c0-5.1-2.2-7.9-7.5-7.9H456v16.2H458.3z"/>
	<path fill="#2EB790" d="M474.4,60.6v-0.3c0-7.4,5.4-12.7,12.8-12.7c7.5,0,12.8,5.1,12.8,12.6v0.3c0,7.4-5.1,12.8-12.9,12.8
		C479.4,73.2,474.4,67.8,474.4,60.6z M494.1,60.5v-0.3c0-4.8-2.6-8.2-6.9-8.2c-4.3,0-6.9,3.2-6.9,8.2v0.3c0,5.1,2.9,8.2,7,8.2
		C491.5,68.7,494.1,65.5,494.1,60.5z"/>
	<path fill="#2EB790" d="M501.3,72.4v-4.3c0.8,0.3,1.7,0.6,3.1,0.6c2.1,0,3.5-1.1,3.5-3.9V47.9h5.7v16.9c0,5.7-3.1,8.4-8.2,8.4
		C503.3,73.2,502.1,72.9,501.3,72.4z"/>
	<path fill="#2EB790" d="M517.4,60.6v-0.3c0-7.4,5.4-12.7,12.8-12.7c7.5,0,12.8,5.1,12.8,12.6v0.3c0,7.4-5.1,12.8-12.9,12.8
		C522.4,73.2,517.4,67.8,517.4,60.6z M537.2,60.5v-0.3c0-4.8-2.6-8.2-6.9-8.2c-4.3,0-6.9,3.2-6.9,8.2v0.3c0,5.1,2.9,8.2,7,8.2
		C534.5,68.7,537.2,65.5,537.2,60.5z"/>
</g>
<circle fill="#2EB790" cx="55.7" cy="55.7" r="14.4"/>
<path fill="#333333" d="M14.8,49C18,29.3,35.2,14.2,55.7,14.2h0c14.4,0,27.2,7.4,34.6,18.6l10.2-10.2C90.4,8.9,74.1,0,55.7,0h0
	C24.9,0,0,24.9,0,55.7c0,8.6,2,16.8,5.5,24.1L36.4,49H14.8z M105.9,31.6L75.1,62.5h21.6c-3.2,19.7-20.4,34.7-40.9,34.7h0
	c-14.4,0-27.2-7.4-34.6-18.6L10.9,88.8c10.1,13.7,26.4,22.6,44.8,22.6h0c30.8,0,55.7-24.9,55.7-55.7
	C111.4,47.1,109.5,38.9,105.9,31.6z"/>
</svg>
