<?xml version="1.0" encoding="utf-8"?>
<!-- Generator: Adobe Illustrator 20.1.0, SVG Export Plug-In . SVG Version: 6.00 Build 0)  -->
<!DOCTYPE svg PUBLIC "-//W3C//DTD SVG 1.1//EN" "http://www.w3.org/Graphics/SVG/1.1/DTD/svg11.dtd">
<svg version="1.1" id="Layer_1" xmlns="http://www.w3.org/2000/svg" xmlns:xlink="http://www.w3.org/1999/xlink" x="0px" y="0px"
	 viewBox="0 0 1662 341" style="enable-background:new 0 0 1662 341;" xml:space="preserve">
<style type="text/css">
	.st0{fill:#2EB790;}
	.st1{fill:#FFFFFF;}
</style>
<g>
	<path class="st0" d="M415.1,221.7h31.5c2.1,17.7,9.3,32.4,39,32.4c19.5,0,33-10.8,33-27s-8.1-22.2-36.6-27
		c-42-5.7-61.8-18.3-61.8-51.3c0-28.8,24.6-50.4,61.2-50.4c37.8,0,60.3,17.1,63.9,50.7h-30c-3.3-18.3-13.8-26.4-33.9-26.4
		c-19.8,0-30.3,9.6-30.3,23.1c0,14.1,6,21.3,36.3,25.8c41.1,5.7,62.7,17.4,62.7,52.5c0,30.3-25.8,54.3-64.5,54.3
		C437.6,278.6,417.5,255,415.1,221.7z"/>
	<path class="st0" d="M569.6,213.3v-2.1c0-39.9,27.3-66.3,63.9-66.3c31.8,0,60.6,18.9,60.6,64.8v8.7h-94.2
		c0.9,24.3,13.2,38.1,35.4,38.1c18,0,27.3-7.2,29.4-19.5h28.8c-4.2,27-26.1,41.7-58.8,41.7C596.9,278.6,569.6,253.8,569.6,213.3z
		 M664.4,198.6c-1.5-22.2-12.9-31.8-31.2-31.8c-18,0-30,12-33,31.8H664.4z"/>
	<path class="st1" d="M722.3,147.9h20.4V171c8.1-14.4,19.2-24.6,42.3-25.2V165c-25.8,1.2-42.3,9.3-42.3,41.1v70.5h-20.4V147.9z"/>
	<path class="st1" d="M800,213.3v-2.1c0-38.7,24.9-65.7,60.3-65.7c29.7,0,57.6,18,57.6,63.9v6.6h-96.6c0.9,29.1,15,45.3,41.4,45.3
		c19.8,0,31.5-7.5,34.2-22.2h20.4c-4.5,25.8-25.8,39.3-54.9,39.3C825.8,278.3,800,252.9,800,213.3z M896.8,199.5
		c-2.1-26.4-15.6-37.2-36.9-37.2c-21,0-34.8,14.1-38.4,37.2H896.8z"/>
	<path class="st1" d="M947.8,147.9h20.4v20.4c6-12,20.1-22.5,41.1-22.5c26.4,0,45.3,14.4,45.3,51.9v78.9h-20.4v-80.7
		c0-22.5-9.6-32.7-30.3-32.7c-18.9,0-35.7,12-35.7,35.1V276h-20.4V147.9z"/>
	<path class="st1" d="M1083.1,107.7c0-7.5,6-13.5,13.5-13.5s13.5,6,13.5,13.5s-6,13.5-13.5,13.5S1083.1,114.9,1083.1,107.7z
		 M1086.7,147.9h20.4v128.4h-20.4V147.9z"/>
	<path class="st1" d="M1152.1,244.2V165h-18.3v-17.1h18.3v-29.1h20.4v29.1h30V165h-30v77.1c0,12.6,5.7,18.6,15.9,18.6
		c6.3,0,11.4-0.9,15.6-2.7v17.1c-4.2,1.5-9,2.7-17.4,2.7C1163.5,278,1152.1,264.3,1152.1,244.2z"/>
	<path class="st1" d="M1269.4,263.1L1219,147.9h21.9l39.3,92.1l35.7-92.1h21l-71.1,173.1h-20.7L1269.4,263.1z"/>
</g>
<g>
	<path class="st0" d="M1378.3,146.7h24.9c26.7,0,39.9,14.4,39.9,37.5v0.9c0,22.8-13.2,38.1-40.2,38.1H1378v-76.5H1378.3z
		 M1402.5,209.7c15.3,0,22.5-8.7,22.5-24.6v-0.9c0-15.6-6.6-24-22.8-24h-6.9v49.5H1402.5z"/>
	<path class="st0" d="M1451.7,185.4v-0.9c0-22.8,16.8-39,39.3-39c23.1,0,39.3,15.6,39.3,38.4v0.9c0,22.8-15.6,39.3-39.3,39.3
		C1467,224.1,1451.7,207.6,1451.7,185.4z M1512.3,185.1v-0.9c0-14.7-7.8-24.9-21.3-24.9c-13.2,0-21.3,9.6-21.3,25.2v0.9
		c0,15.6,9,25.2,21.6,25.2C1504.2,210.3,1512.3,200.4,1512.3,185.1z"/>
	<path class="st0" d="M1534.2,221.7v-13.2c2.7,0.9,5.1,1.8,9.6,1.8c6.6,0,10.8-3.3,10.8-12v-51.6h17.4v51.6
		c0,17.4-9.3,25.5-25.2,25.5C1540.2,224.1,1536.6,222.9,1534.2,221.7z"/>
	<path class="st0" d="M1583.4,185.4v-0.9c0-22.8,16.8-39,39.3-39c23.1,0,39.3,15.6,39.3,38.4v0.9c0,22.8-15.6,39.3-39.3,39.3
		C1598.7,224.1,1583.4,207.6,1583.4,185.4z M1644,185.1v-0.9c0-14.7-7.8-24.9-21.3-24.9c-13.2,0-21.3,9.6-21.3,25.2v0.9
		c0,15.6,9,25.2,21.6,25.2C1635.9,210.3,1644,200.4,1644,185.1z"/>
</g>
<circle class="st0" cx="170.4" cy="170.4" r="44.1"/>
<path class="st1" d="M45.3,149.7c9.9-60.3,62.4-106.2,125.1-106.2l0,0c44.1,0,83.1,22.8,105.9,57L307.7,69
	c-31.2-41.7-81-69-137.4-69l0,0C76.5,0,0,76.5,0,170.4c0,26.7,6,51.6,16.8,74.1l94.5-94.5h-66V149.7z M324.2,96.6l-94.5,94.5h66
	c-9.9,60.3-62.4,106.2-125.1,106.2l0,0c-44.1,0-83.1-22.8-105.9-57l-31.5,31.5c31.2,42,81,69.3,137.1,69.3l0,0
	c94.2,0,170.4-76.5,170.4-170.4C341,144,335,119.1,324.2,96.6z"/>
</svg>
