<?xml version="1.0" encoding="utf-8"?>
<!-- Generator: Adobe Illustrator 20.1.0, SVG Export Plug-In . SVG Version: 6.00 Build 0)  -->
<!DOCTYPE svg PUBLIC "-//W3C//DTD SVG 1.1//EN" "http://www.w3.org/Graphics/SVG/1.1/DTD/svg11.dtd">
<svg version="1.1" id="Layer_1" xmlns="http://www.w3.org/2000/svg" xmlns:xlink="http://www.w3.org/1999/xlink" x="0px" y="0px"
	 viewBox="0 0 1629 334.2" style="enable-background:new 0 0 1629 334.2;" xml:space="preserve">
<style type="text/css">
	.st0{fill:#2EB790;}
	.st1{fill:#333333;}
</style>
<g>
	<path class="st0" d="M406.8,217.2h30.9c2.1,17.4,9,31.8,38.4,31.8c18.9,0,32.4-10.5,32.4-26.4s-7.8-21.9-36-26.4
		c-41.1-5.4-60.6-18-60.6-50.4c0-28.2,24-49.2,60-49.2c37.2,0,59.1,16.8,62.7,49.8h-29.4c-3-18-13.5-25.8-33.3-25.8
		c-19.5,0-29.7,9.3-29.7,22.5c0,14.1,5.7,21,35.7,25.2c40.5,5.4,61.5,17.1,61.5,51.6c0,29.7-25.2,53.1-63.3,53.1
		C429,273,409.2,249.9,406.8,217.2z"/>
	<path class="st0" d="M558.3,209.1v-1.8c0-39,26.7-65.1,62.7-65.1c31.2,0,59.4,18.6,59.4,63.6v8.4H588c0.9,23.7,12.9,37.2,34.8,37.2
		c17.7,0,26.7-6.9,28.8-19.2h28.2c-4.2,26.4-25.5,40.8-57.9,40.8C585,273,558.3,248.7,558.3,209.1z M651.3,194.7
		c-1.5-21.6-12.6-31.2-30.6-31.2c-17.7,0-29.4,11.7-32.1,31.2H651.3z"/>
	<path class="st1" d="M708,144.9h20.1v22.5c7.8-14.1,18.9-24,41.4-24.9v18.9c-25.2,1.2-41.4,9-41.4,40.2v69H708V144.9z"/>
	<path class="st1" d="M784.2,209.1v-1.8c0-38.1,24.3-64.5,59.1-64.5c29.1,0,56.7,17.7,56.7,62.7v6.6h-94.8
		c0.9,28.5,14.7,44.4,40.5,44.4c19.5,0,30.9-7.2,33.3-21.9h20.1c-4.2,25.2-25.2,38.4-53.7,38.4C809.4,273,784.2,247.8,784.2,209.1z
		 M879.3,195.6c-1.8-26.1-15.3-36.3-36-36.3c-20.4,0-34.2,14.1-37.5,36.3H879.3z"/>
	<path class="st1" d="M929.1,144.9h20.1V165c5.7-11.7,19.8-22.2,40.5-22.2c26.1,0,44.4,14.1,44.4,50.7v77.1H1014V192
		c0-22.2-9.3-32.1-29.7-32.1c-18.6,0-35.1,11.7-35.1,34.5v76.2h-20.1L929.1,144.9L929.1,144.9z"/>
	<path class="st1" d="M1061.7,105.3c0-7.2,6-13.2,13.2-13.2c7.2,0,13.2,6,13.2,13.2s-6,13.2-13.2,13.2
		C1067.7,118.8,1061.7,112.5,1061.7,105.3z M1065.3,144.9h20.1v126h-20.1V144.9z"/>
	<path class="st1" d="M1129.5,239.1v-77.4h-18v-16.8h18v-28.5h20.1v28.5h29.4v16.8h-29.4v75.6c0,12.3,5.4,18.3,15.6,18.3
		c6.3,0,11.1-0.9,15.3-2.7v16.8c-4.2,1.5-9,2.7-17.1,2.7C1140.3,272.4,1129.5,258.9,1129.5,239.1z"/>
	<path class="st1" d="M1244.4,257.7l-49.2-112.8h21.3l38.4,90.3l35.1-90.3h20.4l-69.6,169.8h-20.1L1244.4,257.7z"/>
</g>
<g>
	<path class="st0" d="M1350.9,143.7h24.6c26.4,0,39.3,14.1,39.3,36.6v0.9c0,22.5-13.2,37.5-39.3,37.5h-24.3v-75H1350.9z
		 M1374.9,205.5c15,0,22.2-8.4,22.2-24v-0.9c0-15.3-6.6-23.7-22.5-23.7h-6.6v48.6H1374.9z"/>
	<path class="st0" d="M1423.2,181.8v-0.9c0-22.2,16.2-38.1,38.4-38.1c22.5,0,38.4,15.3,38.4,37.8v0.9c0,22.2-15.3,38.4-38.7,38.4
		C1438.2,219.6,1423.2,203.4,1423.2,181.8z M1482.3,181.5v-0.9c0-14.4-7.8-24.6-20.7-24.6c-12.9,0-20.7,9.6-20.7,24.6v0.9
		c0,15.3,8.7,24.6,21,24.6C1474.5,206.1,1482.3,196.5,1482.3,181.5z"/>
	<path class="st0" d="M1503.9,217.2v-12.9c2.4,0.9,5.1,1.8,9.3,1.8c6.3,0,10.5-3.3,10.5-11.7v-50.7h17.1v50.7
		c0,17.1-9.3,25.2-24.6,25.2C1509.9,219.6,1506.3,218.7,1503.9,217.2z"/>
	<path class="st0" d="M1552.2,181.8v-0.9c0-22.2,16.2-38.1,38.4-38.1c22.5,0,38.4,15.3,38.4,37.8v0.9c0,22.2-15.3,38.4-38.7,38.4
		C1567.2,219.6,1552.2,203.4,1552.2,181.8z M1611.6,181.5v-0.9c0-14.4-7.8-24.6-20.7-24.6c-12.9,0-20.7,9.6-20.7,24.6v0.9
		c0,15.3,8.7,24.6,21,24.6S1611.6,196.5,1611.6,181.5z"/>
</g>
<circle class="st0" cx="167.1" cy="167.1" r="43.2"/>
<path class="st1" d="M44.4,147C54,87.9,105.6,42.6,167.1,42.6l0,0c43.2,0,81.6,22.2,103.8,55.8l30.6-30.6
	C271.2,26.7,222.3,0,167.1,0l0,0C74.7,0,0,74.7,0,167.1c0,25.8,6,50.4,16.5,72.3l92.7-92.4H44.4z M317.7,94.8l-92.4,92.7h64.8
	c-9.6,59.1-61.2,104.1-122.7,104.1l0,0c-43.2,0-81.6-22.2-103.8-55.8l-30.9,30.6c30.3,41.1,79.2,67.8,134.4,67.8l0,0
	c92.4,0,167.1-74.7,167.1-167.1C334.2,141.3,328.5,116.7,317.7,94.8z"/>
</svg>
