<?xml version="1.0" encoding="utf-8"?>
<!-- Generator: Adobe Illustrator 20.1.0, SVG Export Plug-In . SVG Version: 6.00 Build 0)  -->
<!DOCTYPE svg PUBLIC "-//W3C//DTD SVG 1.1//EN" "http://www.w3.org/Graphics/SVG/1.1/DTD/svg11.dtd">
<svg version="1.1" id="Layer_1" xmlns="http://www.w3.org/2000/svg" xmlns:xlink="http://www.w3.org/1999/xlink" x="0px" y="0px"
	 viewBox="0 0 555.5 113.7" enable-background="new 0 0 555.5 113.7" xml:space="preserve">
<g>
	<path fill="#2EB790" d="M138.4,73.9h10.5c0.7,5.9,3.1,10.8,13,10.8c6.5,0,11-3.6,11-9c0-5.4-2.7-7.4-12.2-9
		c-14-1.9-20.6-6.1-20.6-17.1c0-9.6,8.2-16.8,20.4-16.8c12.6,0,20.1,5.7,21.3,16.9h-10c-1.1-6.1-4.6-8.8-11.3-8.8
		c-6.6,0-10.1,3.2-10.1,7.7c0,4.7,2,7.1,12.1,8.6c13.7,1.9,20.9,5.8,20.9,17.5c0,10.1-8.6,18.1-21.5,18.1
		C145.9,92.9,139.2,85,138.4,73.9z"/>
	<path fill="#2EB790" d="M189.9,71.1v-0.7c0-13.3,9.1-22.1,21.3-22.1c10.6,0,20.2,6.3,20.2,21.6v2.9H200c0.3,8.1,4.4,12.7,11.8,12.7
		c6,0,9.1-2.4,9.8-6.5h9.6c-1.4,9-8.7,13.9-19.6,13.9C199,92.9,189.9,84.6,189.9,71.1z M221.5,66.2c-0.5-7.4-4.3-10.6-10.4-10.6
		c-6,0-10,4-11,10.6H221.5z"/>
	<path fill="#FFFFFF" d="M240.8,49.3h6.8V57c2.7-4.8,6.4-8.2,14.1-8.4v6.4c-8.6,0.4-14.1,3.1-14.1,13.7v23.5h-6.8V49.3z"/>
	<path fill="#FFFFFF" d="M266.7,71.1v-0.7c0-12.9,8.3-21.9,20.1-21.9c9.9,0,19.2,6,19.2,21.3V72h-32.2c0.3,9.7,5,15.1,13.8,15.1
		c6.6,0,10.5-2.5,11.4-7.4h6.8c-1.5,8.6-8.6,13.1-18.3,13.1C275.3,92.8,266.7,84.3,266.7,71.1z M299,66.5
		c-0.7-8.8-5.2-12.4-12.3-12.4c-7,0-11.6,4.7-12.8,12.4H299z"/>
	<path fill="#FFFFFF" d="M316,49.3h6.8v6.8c2-4,6.7-7.5,13.7-7.5c8.8,0,15.1,4.8,15.1,17.3v26.3h-6.8V65.3c0-7.5-3.2-10.9-10.1-10.9
		c-6.3,0-11.9,4-11.9,11.7v25.9H316V49.3z"/>
	<path fill="#FFFFFF" d="M361.1,35.9c0-2.5,2-4.5,4.5-4.5s4.5,2,4.5,4.5c0,2.5-2,4.5-4.5,4.5S361.1,38.3,361.1,35.9z M362.3,49.3
		h6.8v42.8h-6.8V49.3z"/>
	<path fill="#FFFFFF" d="M384.1,81.4V55H378v-5.7h6.1v-9.7h6.8v9.7h10V55h-10v25.7c0,4.2,1.9,6.2,5.3,6.2c2.1,0,3.8-0.3,5.2-0.9v5.7
		c-1.4,0.5-3,0.9-5.8,0.9C387.9,92.7,384.1,88.1,384.1,81.4z"/>
	<path fill="#FFFFFF" d="M423.2,87.7l-16.8-38.4h7.3L426.8,80l11.9-30.7h7L422,107h-6.9L423.2,87.7z"/>
</g>
<g>
	<path fill="#2EB790" d="M459.5,48.9h8.3c8.9,0,13.3,4.8,13.3,12.5v0.3c0,7.6-4.4,12.7-13.4,12.7h-8.3V48.9z M467.6,69.9
		c5.1,0,7.5-2.9,7.5-8.2v-0.3c0-5.2-2.2-8-7.6-8h-2.3v16.5H467.6z"/>
	<path fill="#2EB790" d="M484,61.8v-0.3c0-7.6,5.6-13,13.1-13c7.7,0,13.1,5.2,13.1,12.8v0.3c0,7.6-5.2,13.1-13.1,13.1
		C489.1,74.7,484,69.2,484,61.8z M504.2,61.7v-0.3c0-4.9-2.6-8.3-7.1-8.3c-4.4,0-7.1,3.2-7.1,8.4v0.3c0,5.2,3,8.4,7.2,8.4
		C501.5,70.1,504.2,66.8,504.2,61.7z"/>
	<path fill="#2EB790" d="M511.5,73.9v-4.4c0.9,0.3,1.7,0.6,3.2,0.6c2.2,0,3.6-1.1,3.6-4V48.9h5.8v17.2c0,5.8-3.1,8.5-8.4,8.5
		C513.5,74.7,512.3,74.3,511.5,73.9z"/>
	<path fill="#2EB790" d="M527.9,61.8v-0.3c0-7.6,5.6-13,13.1-13c7.7,0,13.1,5.2,13.1,12.8v0.3c0,7.6-5.2,13.1-13.1,13.1
		C533,74.7,527.9,69.2,527.9,61.8z M548.1,61.7v-0.3c0-4.9-2.6-8.3-7.1-8.3c-4.4,0-7.1,3.2-7.1,8.4v0.3c0,5.2,3,8.4,7.2,8.4
		C545.4,70.1,548.1,66.8,548.1,61.7z"/>
</g>
<circle fill="#2EB790" cx="56.8" cy="56.8" r="14.7"/>
<path fill="#FFFFFF" d="M15.1,49.9c3.3-20.1,20.8-35.4,41.7-35.4h0c14.7,0,27.7,7.6,35.3,19l10.5-10.5C92.2,9.1,75.6,0,56.8,0h0
	C25.5,0,0,25.5,0,56.8C0,65.7,2,74,5.6,81.5l31.5-31.5H15.1z M108.1,32.2L76.6,63.7h22c-3.3,20.1-20.8,35.4-41.7,35.4h0
	c-14.7,0-27.7-7.6-35.3-19L11.1,90.6c10.4,14,27,23.1,45.7,23.1h0c31.4,0,56.8-25.5,56.8-56.8C113.7,48,111.7,39.7,108.1,32.2z"/>
</svg>
